<?xml version="1.0" encoding="UTF-8" standalone="no"?>
<!DOCTYPE svg PUBLIC "-//W3C//DTD SVG 1.1//EN"
 "http://www.w3.org/Graphics/SVG/1.1/DTD/svg11.dtd">
<!-- Generated by graphviz version 2.38.0 (20140413.2041)
 -->
<!-- Title: G Pages: 1 -->
<svg width="695pt" height="1910pt"
 viewBox="0.00 0.00 695.00 1910.00" xmlns="http://www.w3.org/2000/svg" xmlns:xlink="http://www.w3.org/1999/xlink">
<g id="graph0" class="graph" transform="scale(1 1) rotate(0) translate(4 1906)">
<title>G</title>
<polygon fill="white" stroke="none" points="-4,4 -4,-1906 691,-1906 691,4 -4,4"/>
<g id="clust1" class="cluster"><title>cluster_Global</title>
<path fill="none" stroke="gray" d="M20,-8C20,-8 667,-8 667,-8 673,-8 679,-14 679,-20 679,-20 679,-1882 679,-1882 679,-1888 673,-1894 667,-1894 667,-1894 20,-1894 20,-1894 14,-1894 8,-1888 8,-1882 8,-1882 8,-20 8,-20 8,-14 14,-8 20,-8"/>
<text text-anchor="middle" x="343.5" y="-1881.2" font-family="Times,serif" font-size="11.00" fill="gray">Global</text>
</g>
<g id="clust2" class="cluster"><title>cluster_\FormHandler</title>
<path fill="none" stroke="gray" d="M28,-16C28,-16 659,-16 659,-16 665,-16 671,-22 671,-28 671,-28 671,-1854 671,-1854 671,-1860 665,-1866 659,-1866 659,-1866 28,-1866 28,-1866 22,-1866 16,-1860 16,-1854 16,-1854 16,-28 16,-28 16,-22 22,-16 28,-16"/>
<text text-anchor="middle" x="343.5" y="-1853.2" font-family="Times,serif" font-size="11.00" fill="gray">FormHandler</text>
</g>
<g id="clust3" class="cluster"><title>cluster_\FormHandler\Encoding</title>
<path fill="none" stroke="gray" d="M250.5,-1766C250.5,-1766 641,-1766 641,-1766 647,-1766 653,-1772 653,-1778 653,-1778 653,-1826 653,-1826 653,-1832 647,-1838 641,-1838 641,-1838 250.5,-1838 250.5,-1838 244.5,-1838 238.5,-1832 238.5,-1826 238.5,-1826 238.5,-1778 238.5,-1778 238.5,-1772 244.5,-1766 250.5,-1766"/>
<text text-anchor="middle" x="445.75" y="-1825.2" font-family="Times,serif" font-size="11.00" fill="gray">Encoding</text>
</g>
<g id="clust4" class="cluster"><title>cluster_\FormHandler\Field</title>
<path fill="none" stroke="gray" d="M69,-68C69,-68 624.5,-68 624.5,-68 630.5,-68 636.5,-74 636.5,-80 636.5,-80 636.5,-560 636.5,-560 636.5,-566 630.5,-572 624.5,-572 624.5,-572 69,-572 69,-572 63,-572 57,-566 57,-560 57,-560 57,-80 57,-80 57,-74 63,-68 69,-68"/>
<text text-anchor="middle" x="346.75" y="-559.2" font-family="Times,serif" font-size="11.00" fill="gray">Field</text>
</g>
<g id="clust5" class="cluster"><title>cluster_\FormHandler\Formatter</title>
<path fill="none" stroke="gray" d="M36,-1686C36,-1686 651,-1686 651,-1686 657,-1686 663,-1692 663,-1698 663,-1698 663,-1746 663,-1746 663,-1752 657,-1758 651,-1758 651,-1758 36,-1758 36,-1758 30,-1758 24,-1752 24,-1746 24,-1746 24,-1698 24,-1698 24,-1692 30,-1686 36,-1686"/>
<text text-anchor="middle" x="343.5" y="-1745.2" font-family="Times,serif" font-size="11.00" fill="gray">Formatter</text>
</g>
<g id="clust6" class="cluster"><title>cluster_\FormHandler\Validator</title>
<path fill="none" stroke="gray" d="M36,-580C36,-580 648,-580 648,-580 654,-580 660,-586 660,-592 660,-592 660,-1666 660,-1666 660,-1672 654,-1678 648,-1678 648,-1678 36,-1678 36,-1678 30,-1678 24,-1672 24,-1666 24,-1666 24,-592 24,-592 24,-586 30,-580 36,-580"/>
<text text-anchor="middle" x="342" y="-1665.2" font-family="Times,serif" font-size="11.00" fill="gray">Validator</text>
</g>
<!-- \\FormHandler\\Encoding\\Utf8EncodingFilter -->
<g id="node1" class="node"><title>\\FormHandler\\Encoding\\Utf8EncodingFilter</title>
<polygon fill="none" stroke="black" points="645,-1810 510,-1810 510,-1774 645,-1774 645,-1810"/>
<text text-anchor="middle" x="577.5" y="-1789.2" font-family="Courier,monospace" font-size="11.00">Utf8EncodingFilter</text>
</g>
<!-- \\FormHandler\\Encoding\\InterfaceEncodingFilter -->
<g id="node2" class="node"><title>\\FormHandler\\Encoding\\InterfaceEncodingFilter</title>
<polygon fill="none" stroke="black" points="414.5,-1810 246.5,-1810 246.5,-1774 414.5,-1774 414.5,-1810"/>
<text text-anchor="middle" x="330.5" y="-1789.2" font-family="Courier,monospace" font-size="11.00">InterfaceEncodingFilter</text>
</g>
<!-- \\FormHandler\\Encoding\\Utf8EncodingFilter&#45;&gt;\\FormHandler\\Encoding\\InterfaceEncodingFilter -->
<g id="edge1" class="edge"><title>\\FormHandler\\Encoding\\Utf8EncodingFilter&#45;&gt;\\FormHandler\\Encoding\\InterfaceEncodingFilter</title>
<path fill="none" stroke="black" stroke-dasharray="1,5" d="M509.876,-1792C483.753,-1792 453.315,-1792 425.057,-1792"/>
<polygon fill="none" stroke="black" points="424.756,-1788.5 414.756,-1792 424.756,-1795.5 424.756,-1788.5"/>
</g>
<!-- \\FormHandler\\Field\\AbstractFormField -->
<g id="node3" class="node"><title>\\FormHandler\\Field\\AbstractFormField</title>
<polygon fill="none" stroke="black" points="395,-328 266,-328 266,-292 395,-292 395,-328"/>
<text text-anchor="start" x="297" y="-313.2" font-family="Courier,monospace" font-size="11.00">«abstract»</text>
<text text-anchor="start" x="274" y="-301.2" font-family="Courier,monospace" font-size="11.00">AbstractFormField</text>
</g>
<!-- \\FormHandler\\Field\\Element -->
<g id="node5" class="node"><title>\\FormHandler\\Field\\Element</title>
<polygon fill="none" stroke="black" points="128,-409 65,-409 65,-373 128,-373 128,-409"/>
<text text-anchor="middle" x="96.5" y="-388.2" font-family="Courier,monospace" font-size="11.00">Element</text>
</g>
<!-- \\FormHandler\\Field\\AbstractFormField&#45;&gt;\\FormHandler\\Field\\Element -->
<g id="edge2" class="edge"><title>\\FormHandler\\Field\\AbstractFormField&#45;&gt;\\FormHandler\\Field\\Element</title>
<path fill="none" stroke="black" d="M265.877,-326.764C254.852,-329.964 243.547,-333.434 233,-337 200.417,-348.016 164.267,-362.543 137.507,-373.755"/>
<polygon fill="none" stroke="black" points="135.951,-370.612 128.096,-377.723 138.67,-377.062 135.951,-370.612"/>
</g>
<!-- \\FormHandler\\Field\\CheckBox -->
<g id="node4" class="node"><title>\\FormHandler\\Field\\CheckBox</title>
<polygon fill="none" stroke="black" points="612,-544 543,-544 543,-508 612,-508 612,-544"/>
<text text-anchor="middle" x="577.5" y="-523.2" font-family="Courier,monospace" font-size="11.00">CheckBox</text>
</g>
<!-- \\FormHandler\\Field\\CheckBox&#45;&gt;\\FormHandler\\Field\\AbstractFormField -->
<g id="edge3" class="edge"><title>\\FormHandler\\Field\\CheckBox&#45;&gt;\\FormHandler\\Field\\AbstractFormField</title>
<path fill="none" stroke="black" d="M542.884,-520.352C528.252,-516.442 511.792,-509.896 500,-499 442.132,-445.528 487.613,-388.519 428,-337 421.137,-331.069 413.066,-326.434 404.565,-322.813"/>
<polygon fill="none" stroke="black" points="405.799,-319.537 395.208,-319.268 403.319,-326.084 405.799,-319.537"/>
</g>
<!-- \\FormHandler\\Field\\HiddenField -->
<g id="node6" class="node"><title>\\FormHandler\\Field\\HiddenField</title>
<polygon fill="none" stroke="black" points="622,-490 533,-490 533,-454 622,-454 622,-490"/>
<text text-anchor="middle" x="577.5" y="-469.2" font-family="Courier,monospace" font-size="11.00">HiddenField</text>
</g>
<!-- \\FormHandler\\Field\\HiddenField&#45;&gt;\\FormHandler\\Field\\AbstractFormField -->
<g id="edge4" class="edge"><title>\\FormHandler\\Field\\HiddenField&#45;&gt;\\FormHandler\\Field\\AbstractFormField</title>
<path fill="none" stroke="black" d="M532.748,-461.932C521.331,-457.923 509.561,-452.436 500,-445 454.463,-409.582 474.689,-370.885 428,-337 420.941,-331.877 412.947,-327.725 404.653,-324.361"/>
<polygon fill="none" stroke="black" points="405.79,-321.05 395.197,-320.887 403.376,-327.62 405.79,-321.05"/>
</g>
<!-- \\FormHandler\\Field\\ImageButton -->
<g id="node7" class="node"><title>\\FormHandler\\Field\\ImageButton</title>
<polygon fill="none" stroke="black" points="375,-544 286,-544 286,-508 375,-508 375,-544"/>
<text text-anchor="middle" x="330.5" y="-523.2" font-family="Courier,monospace" font-size="11.00">ImageButton</text>
</g>
<!-- \\FormHandler\\Field\\ImageButton&#45;&gt;\\FormHandler\\Field\\Element -->
<g id="edge5" class="edge"><title>\\FormHandler\\Field\\ImageButton&#45;&gt;\\FormHandler\\Field\\Element</title>
<path fill="none" stroke="black" d="M285.842,-517.704C268.783,-513.471 249.417,-507.399 233,-499 190.527,-477.271 148.675,-441.015 122.975,-416.571"/>
<polygon fill="none" stroke="black" points="125.162,-413.818 115.536,-409.393 120.302,-418.855 125.162,-413.818"/>
</g>
<!-- \\FormHandler\\Field\\Optgroup -->
<g id="node8" class="node"><title>\\FormHandler\\Field\\Optgroup</title>
<polygon fill="none" stroke="black" points="365,-490 296,-490 296,-454 365,-454 365,-490"/>
<text text-anchor="middle" x="330.5" y="-469.2" font-family="Courier,monospace" font-size="11.00">Optgroup</text>
</g>
<!-- \\FormHandler\\Field\\Optgroup&#45;&gt;\\FormHandler\\Field\\Element -->
<g id="edge6" class="edge"><title>\\FormHandler\\Field\\Optgroup&#45;&gt;\\FormHandler\\Field\\Element</title>
<path fill="none" stroke="black" d="M295.737,-463.497C277.091,-458.565 253.601,-451.965 233,-445 200.417,-433.984 164.267,-419.457 137.507,-408.245"/>
<polygon fill="none" stroke="black" points="138.67,-404.938 128.096,-404.277 135.951,-411.388 138.67,-404.938"/>
</g>
<!-- \\FormHandler\\Field\\Option -->
<g id="node9" class="node"><title>\\FormHandler\\Field\\Option</title>
<polygon fill="none" stroke="black" points="358.5,-436 302.5,-436 302.5,-400 358.5,-400 358.5,-436"/>
<text text-anchor="middle" x="330.5" y="-415.2" font-family="Courier,monospace" font-size="11.00">Option</text>
</g>
<!-- \\FormHandler\\Field\\Option&#45;&gt;\\FormHandler\\Field\\Element -->
<g id="edge7" class="edge"><title>\\FormHandler\\Field\\Option&#45;&gt;\\FormHandler\\Field\\Element</title>
<path fill="none" stroke="black" d="M302.433,-414.85C261.983,-410.142 185.478,-401.239 138.25,-395.742"/>
<polygon fill="none" stroke="black" points="138.402,-392.237 128.065,-394.557 137.593,-399.19 138.402,-392.237"/>
</g>
<!-- \\FormHandler\\Field\\PassField -->
<g id="node10" class="node"><title>\\FormHandler\\Field\\PassField</title>
<polygon fill="none" stroke="black" points="615.5,-436 539.5,-436 539.5,-400 615.5,-400 615.5,-436"/>
<text text-anchor="middle" x="577.5" y="-415.2" font-family="Courier,monospace" font-size="11.00">PassField</text>
</g>
<!-- \\FormHandler\\Field\\PassField&#45;&gt;\\FormHandler\\Field\\AbstractFormField -->
<g id="edge8" class="edge"><title>\\FormHandler\\Field\\PassField&#45;&gt;\\FormHandler\\Field\\AbstractFormField</title>
<path fill="none" stroke="black" d="M539.345,-407.414C526.519,-403.108 512.293,-397.579 500,-391 464.733,-372.126 463.875,-354.692 428,-337 420.598,-333.35 412.626,-330.125 404.55,-327.294"/>
<polygon fill="none" stroke="black" points="405.641,-323.969 395.048,-324.149 403.441,-330.614 405.641,-323.969"/>
</g>
<!-- \\FormHandler\\Field\\RadioButton -->
<g id="node11" class="node"><title>\\FormHandler\\Field\\RadioButton</title>
<polygon fill="none" stroke="black" points="622,-382 533,-382 533,-346 622,-346 622,-382"/>
<text text-anchor="middle" x="577.5" y="-361.2" font-family="Courier,monospace" font-size="11.00">RadioButton</text>
</g>
<!-- \\FormHandler\\Field\\RadioButton&#45;&gt;\\FormHandler\\Field\\AbstractFormField -->
<g id="edge9" class="edge"><title>\\FormHandler\\Field\\RadioButton&#45;&gt;\\FormHandler\\Field\\AbstractFormField</title>
<path fill="none" stroke="black" d="M532.981,-354.408C497.592,-346.608 446.871,-335.429 405.174,-326.238"/>
<polygon fill="none" stroke="black" points="405.851,-322.804 395.332,-324.069 404.345,-329.64 405.851,-322.804"/>
</g>
<!-- \\FormHandler\\Field\\SelectField -->
<g id="node12" class="node"><title>\\FormHandler\\Field\\SelectField</title>
<polygon fill="none" stroke="black" points="622,-328 533,-328 533,-292 622,-292 622,-328"/>
<text text-anchor="middle" x="577.5" y="-307.2" font-family="Courier,monospace" font-size="11.00">SelectField</text>
</g>
<!-- \\FormHandler\\Field\\SelectField&#45;&gt;\\FormHandler\\Field\\AbstractFormField -->
<g id="edge10" class="edge"><title>\\FormHandler\\Field\\SelectField&#45;&gt;\\FormHandler\\Field\\AbstractFormField</title>
<path fill="none" stroke="black" d="M532.981,-310C497.666,-310 447.085,-310 405.438,-310"/>
<polygon fill="none" stroke="black" points="405.332,-306.5 395.332,-310 405.332,-313.5 405.332,-306.5"/>
</g>
<!-- \\FormHandler\\Field\\SubmitButton -->
<g id="node13" class="node"><title>\\FormHandler\\Field\\SubmitButton</title>
<polygon fill="none" stroke="black" points="378.5,-382 282.5,-382 282.5,-346 378.5,-346 378.5,-382"/>
<text text-anchor="middle" x="330.5" y="-361.2" font-family="Courier,monospace" font-size="11.00">SubmitButton</text>
</g>
<!-- \\FormHandler\\Field\\SubmitButton&#45;&gt;\\FormHandler\\Field\\Element -->
<g id="edge11" class="edge"><title>\\FormHandler\\Field\\SubmitButton&#45;&gt;\\FormHandler\\Field\\Element</title>
<path fill="none" stroke="black" d="M282.272,-369.496C239.858,-374.432 178.247,-381.603 138.027,-386.283"/>
<polygon fill="none" stroke="black" points="137.565,-382.814 128.037,-387.446 138.374,-389.767 137.565,-382.814"/>
</g>
<!-- \\FormHandler\\Field\\TextArea -->
<g id="node14" class="node"><title>\\FormHandler\\Field\\TextArea</title>
<polygon fill="none" stroke="black" points="612,-274 543,-274 543,-238 612,-238 612,-274"/>
<text text-anchor="middle" x="577.5" y="-253.2" font-family="Courier,monospace" font-size="11.00">TextArea</text>
</g>
<!-- \\FormHandler\\Field\\TextArea&#45;&gt;\\FormHandler\\Field\\AbstractFormField -->
<g id="edge12" class="edge"><title>\\FormHandler\\Field\\TextArea&#45;&gt;\\FormHandler\\Field\\AbstractFormField</title>
<path fill="none" stroke="black" d="M542.948,-263.395C507.662,-271.172 451.015,-283.658 405.23,-293.749"/>
<polygon fill="none" stroke="black" points="404.352,-290.359 395.34,-295.929 405.859,-297.195 404.352,-290.359"/>
</g>
<!-- \\FormHandler\\Field\\TextField -->
<g id="node15" class="node"><title>\\FormHandler\\Field\\TextField</title>
<polygon fill="none" stroke="black" points="615.5,-220 539.5,-220 539.5,-184 615.5,-184 615.5,-220"/>
<text text-anchor="middle" x="577.5" y="-199.2" font-family="Courier,monospace" font-size="11.00">TextField</text>
</g>
<!-- \\FormHandler\\Field\\TextField&#45;&gt;\\FormHandler\\Field\\AbstractFormField -->
<g id="edge13" class="edge"><title>\\FormHandler\\Field\\TextField&#45;&gt;\\FormHandler\\Field\\AbstractFormField</title>
<path fill="none" stroke="black" d="M539.182,-212.289C526.343,-216.57 512.149,-222.158 500,-229 463.952,-249.301 465.157,-269.807 428,-288 420.759,-291.546 412.93,-294.53 404.972,-297.041"/>
<polygon fill="none" stroke="black" points="403.857,-293.72 395.233,-299.874 405.813,-300.442 403.857,-293.72"/>
</g>
<!-- \\FormHandler\\Field\\UploadField -->
<g id="node16" class="node"><title>\\FormHandler\\Field\\UploadField</title>
<polygon fill="none" stroke="black" points="622,-166 533,-166 533,-130 622,-130 622,-166"/>
<text text-anchor="middle" x="577.5" y="-145.2" font-family="Courier,monospace" font-size="11.00">UploadField</text>
</g>
<!-- \\FormHandler\\Field\\UploadField&#45;&gt;\\FormHandler\\Field\\AbstractFormField -->
<g id="edge14" class="edge"><title>\\FormHandler\\Field\\UploadField&#45;&gt;\\FormHandler\\Field\\AbstractFormField</title>
<path fill="none" stroke="black" d="M532.646,-157.938C521.229,-161.946 509.483,-167.465 500,-175 453.375,-212.045 476.68,-253.699 428,-288 421.034,-292.909 413.145,-296.741 404.953,-299.73"/>
<polygon fill="none" stroke="black" points="403.676,-296.464 395.233,-302.865 405.825,-303.126 403.676,-296.464"/>
</g>
<!-- \\FormHandler\\Field\\HasAttributes -->
<g id="node17" class="node"><title>\\FormHandler\\Field\\HasAttributes</title>
<polygon fill="none" stroke="black" points="628.5,-112 526.5,-112 526.5,-76 628.5,-76 628.5,-112"/>
<text text-anchor="middle" x="577.5" y="-91.2" font-family="Courier,monospace" font-size="11.00">HasAttributes</text>
</g>
<!-- \\FormHandler\\Formatter\\AbstractFormatter -->
<g id="node18" class="node"><title>\\FormHandler\\Formatter\\AbstractFormatter</title>
<polygon fill="none" stroke="black" points="161,-1730 32,-1730 32,-1694 161,-1694 161,-1730"/>
<text text-anchor="start" x="63" y="-1715.2" font-family="Courier,monospace" font-size="11.00">«abstract»</text>
<text text-anchor="start" x="40" y="-1703.2" font-family="Courier,monospace" font-size="11.00">AbstractFormatter</text>
</g>
<!-- \\FormHandler\\Formatter\\ErrorAsTitleFormatter -->
<g id="node19" class="node"><title>\\FormHandler\\Formatter\\ErrorAsTitleFormatter</title>
<polygon fill="none" stroke="black" points="655,-1730 500,-1730 500,-1694 655,-1694 655,-1730"/>
<text text-anchor="middle" x="577.5" y="-1709.2" font-family="Courier,monospace" font-size="11.00">ErrorAsTitleFormatter</text>
</g>
<!-- \\FormHandler\\Formatter\\PlainFormatter -->
<g id="node20" class="node"><title>\\FormHandler\\Formatter\\PlainFormatter</title>
<polygon fill="none" stroke="black" points="385,-1730 276,-1730 276,-1694 385,-1694 385,-1730"/>
<text text-anchor="middle" x="330.5" y="-1709.2" font-family="Courier,monospace" font-size="11.00">PlainFormatter</text>
</g>
<!-- \\FormHandler\\Formatter\\ErrorAsTitleFormatter&#45;&gt;\\FormHandler\\Formatter\\PlainFormatter -->
<g id="edge16" class="edge"><title>\\FormHandler\\Formatter\\ErrorAsTitleFormatter&#45;&gt;\\FormHandler\\Formatter\\PlainFormatter</title>
<path fill="none" stroke="black" d="M499.988,-1712C466.415,-1712 427.451,-1712 395.454,-1712"/>
<polygon fill="none" stroke="black" points="395.326,-1708.5 385.326,-1712 395.326,-1715.5 395.326,-1708.5"/>
</g>
<!-- \\FormHandler\\Formatter\\PlainFormatter&#45;&gt;\\FormHandler\\Formatter\\AbstractFormatter -->
<g id="edge17" class="edge"><title>\\FormHandler\\Formatter\\PlainFormatter&#45;&gt;\\FormHandler\\Formatter\\AbstractFormatter</title>
<path fill="none" stroke="black" d="M275.983,-1712C244.937,-1712 205.38,-1712 171.399,-1712"/>
<polygon fill="none" stroke="black" points="171.048,-1708.5 161.048,-1712 171.048,-1715.5 171.048,-1708.5"/>
</g>
<!-- \\FormHandler\\Validator\\AbstractValidator -->
<g id="node21" class="node"><title>\\FormHandler\\Validator\\AbstractValidator</title>
<polygon fill="none" stroke="black" points="161,-1137 32,-1137 32,-1101 161,-1101 161,-1137"/>
<text text-anchor="start" x="63" y="-1122.2" font-family="Courier,monospace" font-size="11.00">«abstract»</text>
<text text-anchor="start" x="40" y="-1110.2" font-family="Courier,monospace" font-size="11.00">AbstractValidator</text>
</g>
<!-- \\FormHandler\\Validator\\BankNumberValidator -->
<g id="node22" class="node"><title>\\FormHandler\\Validator\\BankNumberValidator</title>
<polygon fill="none" stroke="black" points="401.5,-1650 259.5,-1650 259.5,-1614 401.5,-1614 401.5,-1650"/>
<text text-anchor="middle" x="330.5" y="-1629.2" font-family="Courier,monospace" font-size="11.00">BankNumberValidator</text>
</g>
<!-- \\FormHandler\\Validator\\BankNumberValidator&#45;&gt;\\FormHandler\\Validator\\AbstractValidator -->
<g id="edge18" class="edge"><title>\\FormHandler\\Validator\\BankNumberValidator&#45;&gt;\\FormHandler\\Validator\\AbstractValidator</title>
<path fill="none" stroke="black" d="M259.392,-1621.74C249.598,-1617.79 240.377,-1612.38 233,-1605 166.451,-1538.39 116.115,-1240.9 101.695,-1147.29"/>
<polygon fill="none" stroke="black" points="105.117,-1146.52 100.152,-1137.16 98.1971,-1147.57 105.117,-1146.52"/>
</g>
<!-- \\FormHandler\\Validator\\CsrfValidator -->
<g id="node23" class="node"><title>\\FormHandler\\Validator\\CsrfValidator</title>
<polygon fill="none" stroke="black" points="381.5,-1596 279.5,-1596 279.5,-1560 381.5,-1560 381.5,-1596"/>
<text text-anchor="middle" x="330.5" y="-1575.2" font-family="Courier,monospace" font-size="11.00">CsrfValidator</text>
</g>
<!-- \\FormHandler\\Validator\\CsrfValidator&#45;&gt;\\FormHandler\\Validator\\AbstractValidator -->
<g id="edge19" class="edge"><title>\\FormHandler\\Validator\\CsrfValidator&#45;&gt;\\FormHandler\\Validator\\AbstractValidator</title>
<path fill="none" stroke="black" d="M279.087,-1573.52C262.6,-1569.74 245.366,-1562.99 233,-1551 116,-1437.59 99.6353,-1224.57 97.643,-1147.63"/>
<polygon fill="none" stroke="black" points="101.136,-1147.23 97.443,-1137.3 94.1372,-1147.37 101.136,-1147.23"/>
</g>
<!-- \\FormHandler\\Validator\\DateValidator -->
<g id="node24" class="node"><title>\\FormHandler\\Validator\\DateValidator</title>
<polygon fill="none" stroke="black" points="381.5,-1542 279.5,-1542 279.5,-1506 381.5,-1506 381.5,-1542"/>
<text text-anchor="middle" x="330.5" y="-1521.2" font-family="Courier,monospace" font-size="11.00">DateValidator</text>
</g>
<!-- \\FormHandler\\Validator\\DateValidator&#45;&gt;\\FormHandler\\Validator\\AbstractValidator -->
<g id="edge20" class="edge"><title>\\FormHandler\\Validator\\DateValidator&#45;&gt;\\FormHandler\\Validator\\AbstractValidator</title>
<path fill="none" stroke="black" d="M279.356,-1519.23C262.893,-1515.43 245.605,-1508.74 233,-1497 128.872,-1400.05 104.652,-1217.45 99.1104,-1147.37"/>
<polygon fill="none" stroke="black" points="102.582,-1146.84 98.3721,-1137.12 95.5997,-1147.35 102.582,-1146.84"/>
</g>
<!-- \\FormHandler\\Validator\\EmailValidator -->
<g id="node25" class="node"><title>\\FormHandler\\Validator\\EmailValidator</title>
<polygon fill="none" stroke="black" points="385,-1488 276,-1488 276,-1452 385,-1452 385,-1488"/>
<text text-anchor="middle" x="330.5" y="-1467.2" font-family="Courier,monospace" font-size="11.00">EmailValidator</text>
</g>
<!-- \\FormHandler\\Validator\\EmailValidator&#45;&gt;\\FormHandler\\Validator\\AbstractValidator -->
<g id="edge21" class="edge"><title>\\FormHandler\\Validator\\EmailValidator&#45;&gt;\\FormHandler\\Validator\\AbstractValidator</title>
<path fill="none" stroke="black" d="M275.946,-1463.94C260.657,-1460 244.928,-1453.54 233,-1443 141.656,-1362.28 110.342,-1210.02 101.007,-1147.2"/>
<polygon fill="none" stroke="black" points="104.463,-1146.64 99.6003,-1137.23 97.5314,-1147.62 104.463,-1146.64"/>
</g>
<!-- \\FormHandler\\Validator\\EqualsToValidator -->
<g id="node26" class="node"><title>\\FormHandler\\Validator\\EqualsToValidator</title>
<polygon fill="none" stroke="black" points="395,-1434 266,-1434 266,-1398 395,-1398 395,-1434"/>
<text text-anchor="middle" x="330.5" y="-1413.2" font-family="Courier,monospace" font-size="11.00">EqualsToValidator</text>
</g>
<!-- \\FormHandler\\Validator\\EqualsToValidator&#45;&gt;\\FormHandler\\Validator\\AbstractValidator -->
<g id="edge22" class="edge"><title>\\FormHandler\\Validator\\EqualsToValidator&#45;&gt;\\FormHandler\\Validator\\AbstractValidator</title>
<path fill="none" stroke="black" d="M265.834,-1406.3C254.036,-1402.35 242.465,-1396.8 233,-1389 154.29,-1324.14 116.972,-1202.02 103.58,-1147.06"/>
<polygon fill="none" stroke="black" points="106.982,-1146.23 101.284,-1137.3 100.168,-1147.84 106.982,-1146.23"/>
</g>
<!-- \\FormHandler\\Validator\\FloatValidator -->
<g id="node27" class="node"><title>\\FormHandler\\Validator\\FloatValidator</title>
<polygon fill="none" stroke="black" points="385,-1380 276,-1380 276,-1344 385,-1344 385,-1380"/>
<text text-anchor="middle" x="330.5" y="-1359.2" font-family="Courier,monospace" font-size="11.00">FloatValidator</text>
</g>
<!-- \\FormHandler\\Validator\\FloatValidator&#45;&gt;\\FormHandler\\Validator\\AbstractValidator -->
<g id="edge23" class="edge"><title>\\FormHandler\\Validator\\FloatValidator&#45;&gt;\\FormHandler\\Validator\\AbstractValidator</title>
<path fill="none" stroke="black" d="M275.966,-1354.42C261.02,-1350.42 245.473,-1344.32 233,-1335 166.593,-1285.38 124.835,-1192.78 107.198,-1146.63"/>
<polygon fill="none" stroke="black" points="110.477,-1145.4 103.705,-1137.25 103.917,-1147.84 110.477,-1145.4"/>
</g>
<!-- \\FormHandler\\Validator\\ImageUploadValidator -->
<g id="node28" class="node"><title>\\FormHandler\\Validator\\ImageUploadValidator</title>
<polygon fill="none" stroke="black" points="652,-1326 503,-1326 503,-1290 652,-1290 652,-1326"/>
<text text-anchor="middle" x="577.5" y="-1305.2" font-family="Courier,monospace" font-size="11.00">ImageUploadValidator</text>
</g>
<!-- \\FormHandler\\Validator\\UploadValidator -->
<g id="node39" class="node"><title>\\FormHandler\\Validator\\UploadValidator</title>
<polygon fill="none" stroke="black" points="388.5,-1326 272.5,-1326 272.5,-1290 388.5,-1290 388.5,-1326"/>
<text text-anchor="middle" x="330.5" y="-1305.2" font-family="Courier,monospace" font-size="11.00">UploadValidator</text>
</g>
<!-- \\FormHandler\\Validator\\ImageUploadValidator&#45;&gt;\\FormHandler\\Validator\\UploadValidator -->
<g id="edge24" class="edge"><title>\\FormHandler\\Validator\\ImageUploadValidator&#45;&gt;\\FormHandler\\Validator\\UploadValidator</title>
<path fill="none" stroke="black" d="M502.992,-1308C469.924,-1308 431.153,-1308 398.849,-1308"/>
<polygon fill="none" stroke="black" points="398.603,-1304.5 388.603,-1308 398.603,-1311.5 398.603,-1304.5"/>
</g>
<!-- \\FormHandler\\Validator\\Ipv4Validator -->
<g id="node29" class="node"><title>\\FormHandler\\Validator\\Ipv4Validator</title>
<polygon fill="none" stroke="black" points="381.5,-1272 279.5,-1272 279.5,-1236 381.5,-1236 381.5,-1272"/>
<text text-anchor="middle" x="330.5" y="-1251.2" font-family="Courier,monospace" font-size="11.00">Ipv4Validator</text>
</g>
<!-- \\FormHandler\\Validator\\Ipv4Validator&#45;&gt;\\FormHandler\\Validator\\AbstractValidator -->
<g id="edge25" class="edge"><title>\\FormHandler\\Validator\\Ipv4Validator&#45;&gt;\\FormHandler\\Validator\\AbstractValidator</title>
<path fill="none" stroke="black" d="M279.471,-1244.06C264.078,-1239.95 247.404,-1234.37 233,-1227 190.527,-1205.27 148.675,-1169.02 122.975,-1144.57"/>
<polygon fill="none" stroke="black" points="125.162,-1141.82 115.536,-1137.39 120.302,-1146.86 125.162,-1141.82"/>
</g>
<!-- \\FormHandler\\Validator\\IsOptionValidator -->
<g id="node30" class="node"><title>\\FormHandler\\Validator\\IsOptionValidator</title>
<polygon fill="none" stroke="black" points="395,-1218 266,-1218 266,-1182 395,-1182 395,-1218"/>
<text text-anchor="middle" x="330.5" y="-1197.2" font-family="Courier,monospace" font-size="11.00">IsOptionValidator</text>
</g>
<!-- \\FormHandler\\Validator\\IsOptionValidator&#45;&gt;\\FormHandler\\Validator\\AbstractValidator -->
<g id="edge26" class="edge"><title>\\FormHandler\\Validator\\IsOptionValidator&#45;&gt;\\FormHandler\\Validator\\AbstractValidator</title>
<path fill="none" stroke="black" d="M265.877,-1183.24C254.852,-1180.04 243.547,-1176.57 233,-1173 204.815,-1163.47 173.96,-1151.31 148.822,-1140.95"/>
<polygon fill="none" stroke="black" points="150.064,-1137.67 139.486,-1137.07 147.38,-1144.14 150.064,-1137.67"/>
</g>
<!-- \\FormHandler\\Validator\\NumberValidator -->
<g id="node31" class="node"><title>\\FormHandler\\Validator\\NumberValidator</title>
<polygon fill="none" stroke="black" points="388.5,-1164 272.5,-1164 272.5,-1128 388.5,-1128 388.5,-1164"/>
<text text-anchor="middle" x="330.5" y="-1143.2" font-family="Courier,monospace" font-size="11.00">NumberValidator</text>
</g>
<!-- \\FormHandler\\Validator\\NumberValidator&#45;&gt;\\FormHandler\\Validator\\AbstractValidator -->
<g id="edge27" class="edge"><title>\\FormHandler\\Validator\\NumberValidator&#45;&gt;\\FormHandler\\Validator\\AbstractValidator</title>
<path fill="none" stroke="black" d="M272.449,-1139.36C241.931,-1135.81 203.998,-1131.39 171.262,-1127.58"/>
<polygon fill="none" stroke="black" points="171.622,-1124.1 161.284,-1126.42 170.812,-1131.06 171.622,-1124.1"/>
</g>
<!-- \\FormHandler\\Validator\\RadioButtonCheckedValidator -->
<g id="node32" class="node"><title>\\FormHandler\\Validator\\RadioButtonCheckedValidator</title>
<polygon fill="none" stroke="black" points="428,-1110 233,-1110 233,-1074 428,-1074 428,-1110"/>
<text text-anchor="middle" x="330.5" y="-1089.2" font-family="Courier,monospace" font-size="11.00">RadioButtonCheckedValidator</text>
</g>
<!-- \\FormHandler\\Validator\\RadioButtonCheckedValidator&#45;&gt;\\FormHandler\\Validator\\AbstractValidator -->
<g id="edge28" class="edge"><title>\\FormHandler\\Validator\\RadioButtonCheckedValidator&#45;&gt;\\FormHandler\\Validator\\AbstractValidator</title>
<path fill="none" stroke="black" d="M232.791,-1103.25C212.251,-1105.65 190.881,-1108.13 171.354,-1110.4"/>
<polygon fill="none" stroke="black" points="170.854,-1106.94 161.325,-1111.57 171.663,-1113.89 170.854,-1106.94"/>
</g>
<!-- \\FormHandler\\Validator\\RegexValidator -->
<g id="node33" class="node"><title>\\FormHandler\\Validator\\RegexValidator</title>
<polygon fill="none" stroke="black" points="385,-1056 276,-1056 276,-1020 385,-1020 385,-1056"/>
<text text-anchor="middle" x="330.5" y="-1035.2" font-family="Courier,monospace" font-size="11.00">RegexValidator</text>
</g>
<!-- \\FormHandler\\Validator\\RegexValidator&#45;&gt;\\FormHandler\\Validator\\AbstractValidator -->
<g id="edge29" class="edge"><title>\\FormHandler\\Validator\\RegexValidator&#45;&gt;\\FormHandler\\Validator\\AbstractValidator</title>
<path fill="none" stroke="black" d="M275.847,-1051.92C261.812,-1055.86 246.761,-1060.35 233,-1065 204.815,-1074.53 173.96,-1086.69 148.822,-1097.05"/>
<polygon fill="none" stroke="black" points="147.38,-1093.86 139.486,-1100.93 150.064,-1100.33 147.38,-1093.86"/>
</g>
<!-- \\FormHandler\\Validator\\SameFieldsValidator -->
<g id="node34" class="node"><title>\\FormHandler\\Validator\\SameFieldsValidator</title>
<polygon fill="none" stroke="black" points="401.5,-1002 259.5,-1002 259.5,-966 401.5,-966 401.5,-1002"/>
<text text-anchor="middle" x="330.5" y="-981.2" font-family="Courier,monospace" font-size="11.00">SameFieldsValidator</text>
</g>
<!-- \\FormHandler\\Validator\\SameFieldsValidator&#45;&gt;\\FormHandler\\Validator\\AbstractValidator -->
<g id="edge30" class="edge"><title>\\FormHandler\\Validator\\SameFieldsValidator&#45;&gt;\\FormHandler\\Validator\\AbstractValidator</title>
<path fill="none" stroke="black" d="M259.436,-999.998C250.323,-1003.11 241.286,-1006.76 233,-1011 190.527,-1032.73 148.675,-1068.98 122.975,-1093.43"/>
<polygon fill="none" stroke="black" points="120.302,-1091.14 115.536,-1100.61 125.162,-1096.18 120.302,-1091.14"/>
</g>
<!-- \\FormHandler\\Validator\\SamePasswordValidator -->
<g id="node35" class="node"><title>\\FormHandler\\Validator\\SamePasswordValidator</title>
<polygon fill="none" stroke="black" points="408,-948 253,-948 253,-912 408,-912 408,-948"/>
<text text-anchor="middle" x="330.5" y="-927.2" font-family="Courier,monospace" font-size="11.00">SamePasswordValidator</text>
</g>
<!-- \\FormHandler\\Validator\\SamePasswordValidator&#45;&gt;\\FormHandler\\Validator\\AbstractValidator -->
<g id="edge31" class="edge"><title>\\FormHandler\\Validator\\SamePasswordValidator&#45;&gt;\\FormHandler\\Validator\\AbstractValidator</title>
<path fill="none" stroke="black" d="M252.807,-946.747C245.859,-949.645 239.138,-953.035 233,-957 178.716,-992.065 134.952,-1055.64 112.952,-1091.84"/>
<polygon fill="none" stroke="black" points="109.696,-1090.47 107.584,-1100.85 115.709,-1094.05 109.696,-1090.47"/>
</g>
<!-- \\FormHandler\\Validator\\SelectFieldValidator -->
<g id="node36" class="node"><title>\\FormHandler\\Validator\\SelectFieldValidator</title>
<polygon fill="none" stroke="black" points="405,-894 256,-894 256,-858 405,-858 405,-894"/>
<text text-anchor="middle" x="330.5" y="-873.2" font-family="Courier,monospace" font-size="11.00">SelectFieldValidator</text>
</g>
<!-- \\FormHandler\\Validator\\SelectFieldValidator&#45;&gt;\\FormHandler\\Validator\\AbstractValidator -->
<g id="edge32" class="edge"><title>\\FormHandler\\Validator\\SelectFieldValidator&#45;&gt;\\FormHandler\\Validator\\AbstractValidator</title>
<path fill="none" stroke="black" d="M255.648,-890.403C247.579,-893.76 239.829,-897.898 233,-903 166.593,-952.616 124.835,-1045.22 107.198,-1091.37"/>
<polygon fill="none" stroke="black" points="103.917,-1090.16 103.705,-1100.75 110.477,-1092.6 103.917,-1090.16"/>
</g>
<!-- \\FormHandler\\Validator\\StringValidator -->
<g id="node37" class="node"><title>\\FormHandler\\Validator\\StringValidator</title>
<polygon fill="none" stroke="black" points="388.5,-840 272.5,-840 272.5,-804 388.5,-804 388.5,-840"/>
<text text-anchor="middle" x="330.5" y="-819.2" font-family="Courier,monospace" font-size="11.00">StringValidator</text>
</g>
<!-- \\FormHandler\\Validator\\StringValidator&#45;&gt;\\FormHandler\\Validator\\AbstractValidator -->
<g id="edge33" class="edge"><title>\\FormHandler\\Validator\\StringValidator&#45;&gt;\\FormHandler\\Validator\\AbstractValidator</title>
<path fill="none" stroke="black" d="M272.372,-829.673C258.374,-833.678 244.21,-839.762 233,-849 154.29,-913.862 116.972,-1035.98 103.58,-1090.94"/>
<polygon fill="none" stroke="black" points="100.168,-1090.16 101.284,-1100.7 106.982,-1091.77 100.168,-1090.16"/>
</g>
<!-- \\FormHandler\\Validator\\TelephoneValidator -->
<g id="node38" class="node"><title>\\FormHandler\\Validator\\TelephoneValidator</title>
<polygon fill="none" stroke="black" points="645,-840 510,-840 510,-804 645,-804 645,-840"/>
<text text-anchor="middle" x="577.5" y="-819.2" font-family="Courier,monospace" font-size="11.00">TelephoneValidator</text>
</g>
<!-- \\FormHandler\\Validator\\TelephoneValidator&#45;&gt;\\FormHandler\\Validator\\StringValidator -->
<g id="edge34" class="edge"><title>\\FormHandler\\Validator\\TelephoneValidator&#45;&gt;\\FormHandler\\Validator\\StringValidator</title>
<path fill="none" stroke="black" d="M509.876,-822C475.313,-822 433.197,-822 398.569,-822"/>
<polygon fill="none" stroke="black" points="398.548,-818.5 388.548,-822 398.548,-825.5 398.548,-818.5"/>
</g>
<!-- \\FormHandler\\Validator\\UploadValidator&#45;&gt;\\FormHandler\\Validator\\AbstractValidator -->
<g id="edge35" class="edge"><title>\\FormHandler\\Validator\\UploadValidator&#45;&gt;\\FormHandler\\Validator\\AbstractValidator</title>
<path fill="none" stroke="black" d="M272.463,-1298.12C258.844,-1294.16 244.837,-1288.65 233,-1281 178.716,-1245.94 134.952,-1182.36 112.952,-1146.16"/>
<polygon fill="none" stroke="black" points="115.709,-1143.95 107.584,-1137.15 109.696,-1147.53 115.709,-1143.95"/>
</g>
<!-- \\FormHandler\\Validator\\UrlValidator -->
<g id="node40" class="node"><title>\\FormHandler\\Validator\\UrlValidator</title>
<polygon fill="none" stroke="black" points="378.5,-786 282.5,-786 282.5,-750 378.5,-750 378.5,-786"/>
<text text-anchor="middle" x="330.5" y="-765.2" font-family="Courier,monospace" font-size="11.00">UrlValidator</text>
</g>
<!-- \\FormHandler\\Validator\\UrlValidator&#45;&gt;\\FormHandler\\Validator\\AbstractValidator -->
<g id="edge36" class="edge"><title>\\FormHandler\\Validator\\UrlValidator&#45;&gt;\\FormHandler\\Validator\\AbstractValidator</title>
<path fill="none" stroke="black" d="M282.177,-772.581C265.026,-776.316 246.557,-783.019 233,-795 141.656,-875.723 110.342,-1027.98 101.007,-1090.8"/>
<polygon fill="none" stroke="black" points="97.5314,-1090.38 99.6003,-1100.77 104.463,-1091.36 97.5314,-1090.38"/>
</g>
<!-- \\FormHandler\\Validator\\UserFunctionValidator -->
<g id="node41" class="node"><title>\\FormHandler\\Validator\\UserFunctionValidator</title>
<polygon fill="none" stroke="black" points="408,-732 253,-732 253,-696 408,-696 408,-732"/>
<text text-anchor="middle" x="330.5" y="-711.2" font-family="Courier,monospace" font-size="11.00">UserFunctionValidator</text>
</g>
<!-- \\FormHandler\\Validator\\UserFunctionValidator&#45;&gt;\\FormHandler\\Validator\\AbstractValidator -->
<g id="edge37" class="edge"><title>\\FormHandler\\Validator\\UserFunctionValidator&#45;&gt;\\FormHandler\\Validator\\AbstractValidator</title>
<path fill="none" stroke="black" d="M252.574,-727.919C245.427,-731.372 238.73,-735.665 233,-741 128.872,-837.949 104.652,-1020.55 99.1104,-1090.63"/>
<polygon fill="none" stroke="black" points="95.5997,-1090.65 98.3721,-1100.88 102.582,-1091.16 95.5997,-1090.65"/>
</g>
<!-- \\FormHandler\\Validator\\UserMethodValidator -->
<g id="node42" class="node"><title>\\FormHandler\\Validator\\UserMethodValidator</title>
<polygon fill="none" stroke="black" points="401.5,-678 259.5,-678 259.5,-642 401.5,-642 401.5,-678"/>
<text text-anchor="middle" x="330.5" y="-657.2" font-family="Courier,monospace" font-size="11.00">UserMethodValidator</text>
</g>
<!-- \\FormHandler\\Validator\\UserMethodValidator&#45;&gt;\\FormHandler\\Validator\\AbstractValidator -->
<g id="edge38" class="edge"><title>\\FormHandler\\Validator\\UserMethodValidator&#45;&gt;\\FormHandler\\Validator\\AbstractValidator</title>
<path fill="none" stroke="black" d="M259.107,-670.667C249.468,-674.571 240.37,-679.856 233,-687 116,-800.414 99.6353,-1013.43 97.643,-1090.37"/>
<polygon fill="none" stroke="black" points="94.1372,-1090.63 97.443,-1100.7 101.136,-1090.77 94.1372,-1090.63"/>
</g>
<!-- \\FormHandler\\Validator\\WhitelistValidator -->
<g id="node43" class="node"><title>\\FormHandler\\Validator\\WhitelistValidator</title>
<polygon fill="none" stroke="black" points="398,-624 263,-624 263,-588 398,-588 398,-624"/>
<text text-anchor="middle" x="330.5" y="-603.2" font-family="Courier,monospace" font-size="11.00">WhitelistValidator</text>
</g>
<!-- \\FormHandler\\Validator\\WhitelistValidator&#45;&gt;\\FormHandler\\Validator\\AbstractValidator -->
<g id="edge39" class="edge"><title>\\FormHandler\\Validator\\WhitelistValidator&#45;&gt;\\FormHandler\\Validator\\AbstractValidator</title>
<path fill="none" stroke="black" d="M262.841,-614.937C251.774,-618.975 241.238,-624.754 233,-633 166.451,-699.61 116.115,-997.097 101.695,-1090.71"/>
<polygon fill="none" stroke="black" points="98.1971,-1090.43 100.152,-1100.84 105.117,-1091.48 98.1971,-1090.43"/>
</g>
<!-- \\FormHandler\\Form -->
<g id="node44" class="node"><title>\\FormHandler\\Form</title>
<polygon fill="none" stroke="black" points="357.5,-60 303.5,-60 303.5,-24 357.5,-24 357.5,-60"/>
<text text-anchor="middle" x="330.5" y="-39.2" font-family="Courier,monospace" font-size="11.00">Form</text>
</g>
<!-- \\FormHandler\\Form&#45;&gt;\\FormHandler\\Field\\Element -->
<g id="edge15" class="edge"><title>\\FormHandler\\Form&#45;&gt;\\FormHandler\\Field\\Element</title>
<path fill="none" stroke="black" d="M303.271,-41.662C282.045,-42.742 252.565,-47.4853 233,-64 138.891,-143.437 109.087,-298.898 100.581,-362.673"/>
<polygon fill="none" stroke="black" points="97.0837,-362.43 99.3097,-372.788 104.029,-363.302 97.0837,-362.43"/>
</g>
</g>
</svg>
